<svg version="1.2" xmlns="http://www.w3.org/2000/svg" viewBox="0 0 31 31" width="31" height="31"><defs><clipPath clipPathUnits="userSpaceOnUse" id="cp1"><path d="m-375-4947h1920v5159h-1920z"/></clipPath></defs><style>.a{fill:#777}</style><g clip-path="url(#cp1)"><path fill-rule="evenodd" class="a" d="m0.5 15.2c0-8.3 6.8-15.1 15.1-15.1 8.2 0 15 6.8 15 15.1 0 8.2-6.8 15-15 15-8.3 0-15.1-6.8-15.1-15zm1.6 0c0 7.4 6.1 13.4 13.5 13.4 7.3 0 13.4-6 13.4-13.4 0-7.4-6.1-13.5-13.4-13.5-7.4 0-13.5 6.1-13.5 13.5zm11.4 8.6q-0.6-0.3-1.2-0.8-0.5-0.3-1.2-0.4c-0.6-0.1-1.2 0.1-1.8 0.2-0.3 0-0.7-0.1-0.7-0.4 0-0.8-0.5-1-1.2-1.1-0.3 0-0.6-0.2-0.9-0.3-0.3-0.1-0.6-0.3-0.8-0.6q0-0.2 0-0.4c0.2-0.1 0.3-0.2 0.5-0.3 1.6-0.3 2.7-1.3 3.5-2.7 0.7-1.1 0.6-1.4-0.7-1.8q-0.1-0.1-0.2-0.1c-0.3-0.1-0.5-0.2-0.8-0.4-0.5-0.5-0.2-1.2 0.5-1.4 0.5-0.1 0.9 0.2 1.4 0.3 0.3 0 0.4-0.1 0.4-0.4-0.1-0.9-0.1-1.8-0.1-2.6 0.1-1.7 0.9-3 2.3-3.8 2-1.2 4.1-1.2 6.2 0 1.2 0.7 2.1 1.9 2.2 3.4 0.2 1 0.1 1.9 0 2.9 0 0.5 0.1 0.5 0.5 0.4 0.5-0.1 1-0.4 1.5-0.1 0.3 0.1 0.6 0.4 0.6 0.7 0 0.2-0.2 0.4-0.3 0.6-0.3 0.2-0.6 0.3-0.9 0.4q-0.4 0.2-0.7 0.3c-0.5 0.2-0.7 0.5-0.4 1 0.7 1.6 1.9 2.9 3.7 3.3q0.4 0.1 0.6 0.3 0 0.2 0 0.4c-0.2 0.3-0.5 0.5-0.9 0.6-0.3 0.2-0.7 0.3-1.1 0.4-0.5 0-0.8 0.2-0.9 0.8-0.1 0.5-0.2 0.6-0.8 0.5q-0.1 0-0.3 0c-1.1-0.2-2.1-0.1-2.9 0.6q-0.3 0.2-0.6 0.4-1.2 0.7-2.4 0.8-1 0-2.1-0.7z"/></g></svg>