<svg version="1.2" xmlns="http://www.w3.org/2000/svg" viewBox="0 0 261 76" width="261" height="76"><defs><clipPath clipPathUnits="userSpaceOnUse" id="cp1"><path d="m-836-3985h1920v5159h-1920z"/></clipPath></defs><style>.a{fill:#aaa}</style><g clip-path="url(#cp1)"><path class="a" d="m195.5 57c-10.8 0-19.5-8.5-19.5-19 0-10.5 8.7-19 19.5-19 10.8 0 19.5 8.5 19.5 19 0 10.5-8.7 19-19.5 19zm46 0c-10.8 0-19.5-8.5-19.5-19 0-10.5 8.7-19 19.5-19 10.8 0 19.5 8.5 19.5 19 0 10.5-8.7 19-19.5 19zm-179 0c-10.8 0-19.5-8.5-19.5-19 0-10.5 8.7-19 19.5-19 10.8 0 19.5 8.5 19.5 19 0 10.5-8.7 19-19.5 19zm-43 0c-10.8 0-19.5-8.5-19.5-19 0-10.5 8.7-19 19.5-19 10.8 0 19.5 8.5 19.5 19 0 10.5-8.7 19-19.5 19zm110.5 19c-21 0-38-17-38-38 0-21 17-38 38-38 21 0 38 17 38 38 0 21-17 38-38 38z"/></g></svg>