<svg version="1.2" xmlns="http://www.w3.org/2000/svg" viewBox="0 0 33 33" width="33" height="33">
    <defs>
        <clipPath clipPathUnits="userSpaceOnUse" id="cp1">
            <path d="m-494-4946h1920v5159h-1920z"/>
        </clipPath>
    </defs>
    <style>.a{fill:#777;}</style>
    <g clip-path="url(#cp1)">
        <path fill-rule="evenodd" class="a"
              d="m16.6 31.4c-8.2 0-14.8-6.7-14.8-14.8 0-8.2 6.6-14.9 14.8-14.9 8.2 0 14.8 6.7 14.8 14.9 0 8.1-6.6 14.8-14.8 14.8zm0-28.3c-7.4 0-13.4 6.1-13.4 13.5 0 7.4 6 13.4 13.4 13.4 7.4 0 13.4-6 13.4-13.4 0-7.4-6-13.5-13.4-13.5zm9.4 17.1c0 3.1-2.5 5.6-5.6 5.6h-7.4c-3.1 0-5.6-2.5-5.6-5.6v-7.5c0-3.1 2.5-5.6 5.6-5.6h7.4c3.1 0 5.6 2.5 5.6 5.6zm-1.7-7.4c0-2.1-1.8-3.9-3.9-3.9h-7.4c-2.2 0-3.9 1.8-3.9 3.9v7.4c0 2.2 1.7 3.9 3.9 3.9h7.4c2.1 0 3.9-1.7 3.9-3.9zm-3 3.9c0 2.5-2 4.6-4.6 4.6-2.5 0-4.6-2.1-4.6-4.6 0-2.6 2.1-4.6 4.6-4.6 2.6 0 4.6 2 4.6 4.6zm1.4-5c0 0.7-0.5 1.1-1.1 1.1-0.6 0-1.1-0.4-1.1-1.1 0-0.6 0.5-1.1 1.1-1.1 0.6 0 1.1 0.5 1.1 1.1zm-3 5c0-1.7-1.4-3-3-3-1.6 0-2.9 1.3-2.9 3 0 1.6 1.3 2.9 2.9 2.9 1.6 0 3-1.3 3-2.9z"/>
    </g>
</svg>
