<svg version="1.2" xmlns="http://www.w3.org/2000/svg" viewBox="0 0 11 15" width="11" height="15"><defs><clipPath clipPathUnits="userSpaceOnUse" id="cp1"><path d="m-1575-299h1920v1076h-1920z"/></clipPath></defs><style>.a{fill:#727272}</style><g clip-path="url(#cp1)"><path fill-rule="evenodd" class="a" d="m10 14h-9c-0.6 0-1-0.4-1-1v-6c0-0.6 0.4-1 1-1h1v-1.4c0-1.1 0.3-2 0.9-2.6 0.6-0.7 1.5-1 2.6-1 1.1 0 2 0.3 2.6 1 0.6 0.6 0.9 1.5 0.9 2.6v1.4h1c0.6 0 1 0.4 1 1v6c0 0.6-0.4 1-1 1zm-9-7v6h9v-6zm4.5-5q-1.2 0-1.9 0.7c-0.4 0.4-0.6 1.1-0.6 1.9v1.4h5v-1.4c0-0.8-0.2-1.5-0.6-1.9q-0.7-0.7-1.9-0.7z"/></g></svg>