<?xml version="1.0" encoding="UTF-8"?>
<svg width="176px" height="75px" viewBox="0 0 176 75" version="1.1" xmlns="http://www.w3.org/2000/svg" xmlns:xlink="http://www.w3.org/1999/xlink">
    <!-- Generator: Sketch 63.1 (92452) - https://sketch.com -->
    <title>mssaq-logo</title>
    <desc>Created with Sketch.</desc>
    <g id="logo+favicon" stroke="none" stroke-width="1" fill="none" fill-rule="evenodd">
        <g id="logo-safe" transform="translate(-27.000000, -27.000000)" fill-rule="nonzero">
            <g id="mssaq-logo" transform="translate(27.000000, 27.000000)">
                <path d="M159.327,22.454 C158.60332,22.4544286 157.880443,22.5021973 157.163,22.597 C150.982181,23.4642248 146.1189,28.3128298 145.233,34.491 L143.809,44.374 L132.509,44.374 L133.969,34.219 L123.556,32.719 L121.874,44.374 L110.584,44.374 L112.047,34.219 L101.634,32.719 L99.956,44.375 L88.666,44.375 L90.126,34.22 L79.713,32.72 L78.035,44.376 L70.435,44.376 C69.4386881,44.3785363 68.4885149,43.9563435 67.8226273,43.2152381 C67.1567396,42.4741326 66.8382561,41.4843628 66.947,40.494 L71.198,1.131 L60.738,0.002 L56.487,39.362 C56.0581444,43.3229463 57.3337631,47.2794073 59.9954807,50.2439094 C62.6571983,53.2084115 66.4539052,54.9012799 70.438,54.9000007 L76.52,54.9000007 L78.477,52.269 L79.905,53.05 C82.127633,54.2638023 84.6195282,54.9000007 87.152,54.9000007 L98.441,54.9000007 L100.398,52.269 L101.927,53.095 C104.121533,54.2780554 106.575891,54.8966278 109.069,54.895 L120.361,54.895 L122.318,52.264 L123.712,53.029 C125.943564,54.2531358 128.447732,54.8949127 130.993,54.895 L159.327,54.895 C168.285611,54.895 175.548,47.6326109 175.548,38.674 C175.548,29.7153891 168.285611,22.453 159.327,22.453 L159.327,22.454 Z M163.355,42.706 C162.288921,43.7775446 160.838527,44.3781543 159.327,44.3740214 L154.439,44.3740214 L155.646,35.99 C155.84953,34.4647318 157.035652,33.2570148 158.557,33.026 C158.812293,32.9923561 159.0695,32.9753203 159.327,32.975 C161.632194,32.9758157 163.709962,34.3650254 164.591615,36.4949571 C165.473268,38.6248887 164.985217,41.0761804 163.355,42.706 L163.355,42.706 Z" id="Path_12" fill="#43766D"></path>
                <g id="Group_6" transform="translate(59.774000, 63.500000)" fill="#AFBDC4">
                    <path d="M11.9,2.61 L11.9,8.239 L10.006,8.239 L10.006,3.259 C10.006,2.119 9.706,1.751 8.937,1.751 C8.2843291,1.77605426 7.64703951,1.95637396 7.078,2.277 C7.09293743,2.38733607 7.09895692,2.49869667 7.096,2.61 L7.096,8.239 L5.2,8.239 L5.2,3.259 C5.2,2.119 4.9,1.751 4.131,1.751 C3.48945454,1.77652811 2.86362719,1.95700245 2.307,2.277 L2.307,8.239 L0.413,8.239 L0.413,0.489 L2.307,0.296 L2.307,0.979 C3.08068271,0.510444864 3.96283989,0.250966599 4.867,0.226 C5.59988844,0.156476179 6.31231638,0.492367929 6.725,1.102 C7.61428792,0.559173406 8.62959901,0.257268276 9.671,0.226 C11.005,0.226 11.9,0.927 11.9,2.61 Z" id="Path_13"></path>
                    <path d="M17.2,7.415 L18.006,6.135 C18.7718963,6.70556645 19.6989951,7.01856731 20.654,7.029 C21.583,7.029 22.054,6.713 22.054,6.152 C22.054,5.696 21.754,5.363 20.442,5.013 L19.915,4.872 C18.285,4.434 17.548,3.772 17.548,2.558 C17.548,1.172 18.811,0.226 20.582,0.226 C21.6724827,0.2199952 22.7440638,0.510704775 23.682,1.067 L22.946,2.33 C22.2427342,1.9022559 21.4370923,1.67217122 20.614,1.664 C19.877,1.664 19.474,1.979 19.474,2.435 C19.474,2.856 19.737,3.049 20.702,3.294 L21.263,3.434 C23.174,3.943 23.963,4.714 23.963,5.977 C23.963,7.397 22.876,8.467 20.702,8.467 C19.4512848,8.50680766 18.221733,8.13745057 17.2,7.415 L17.2,7.415 Z" id="Path_14"></path>
                    <path d="M35.714,2.8 L35.714,8.236 L34.066,8.236 L33.926,7.587 C33.1416248,8.17130319 32.1859619,8.47966096 31.208,8.464 C30.6044035,8.53287307 30.0001771,8.34023466 29.5478283,7.93470686 C29.0954794,7.52917907 28.8382264,6.94950686 28.8409778,6.342 C28.8409778,4.361 31.141,3.519 33.82,3.449 L33.82,3.149 C33.82,2.167 33.52,1.729 32.558,1.729 C31.6244226,1.76806939 30.7225464,2.07877358 29.963,2.623 L29.191,1.413 C30.2492835,0.638548519 31.5266118,0.221 32.838,0.221 C34.7,0.226 35.714,0.962 35.714,2.8 Z M31.821,6.991 C32.5298733,6.97690549 33.2214299,6.76943849 33.821,6.391 L33.821,4.707 C31.998,4.795 30.821,5.269 30.821,6.128 C30.822,6.7 31.173,6.994 31.821,6.994 L31.821,6.991 Z" id="Path_15"></path>
                    <path d="M48.077,2.8 L48.077,8.236 L46.429,8.236 L46.289,7.587 C45.5046248,8.17130319 44.5489619,8.47966096 43.571,8.464 C42.9674035,8.53287307 42.3631771,8.34023466 41.9108283,7.93470686 C41.4584794,7.52917907 41.2012264,6.94950686 41.2039778,6.342 C41.2039778,4.361 43.504,3.519 46.183,3.449 L46.183,3.149 C46.183,2.167 45.883,1.729 44.921,1.729 C43.9857015,1.76710491 43.0819546,2.07785482 42.321,2.623 L41.549,1.413 C42.6076555,0.63853424 43.8853031,0.221 45.197,0.221 C47.06,0.226 48.077,0.962 48.077,2.8 Z M44.185,6.991 C44.893905,6.97710803 45.5855149,6.76962508 46.185,6.391 L46.185,4.707 C44.362,4.795 43.185,5.269 43.185,6.128 C43.185,6.7 43.536,6.994 44.185,6.994 L44.185,6.991 Z" id="Path_16"></path>
                    <path d="M61.159,0.787 L61.159,11.5 L59.266,11.5 L59.266,7.765 C58.543865,8.21072213 57.7145245,8.45261312 56.866,8.465 C54.744,8.465 53.692,6.904 53.692,4.59 C53.692,1.206 56.181,0.241 58.128,0.241 C59.1613699,0.256266607 60.1852604,0.440708759 61.159,0.787 L61.159,0.787 Z M59.266,6.433 L59.266,1.8 C58.9092121,1.71763476 58.5441711,1.67636634 58.178,1.67699281 C56.828,1.67699281 55.671,2.448 55.671,4.605 C55.671,6.113 56.232,6.955 57.389,6.955 C58.0475796,6.93473072 58.6915136,6.7556505 59.266,6.433 L59.266,6.433 Z" id="Path_17"></path>
                    <path d="M66.719,7.2 C66.7121032,6.69495469 67.0110258,6.2357911 67.4756617,6.03772096 C67.9402977,5.83965082 68.4785586,5.94193056 68.8381595,6.29662128 C69.1977604,6.651312 69.3074304,7.1881159 69.1157667,7.65543096 C68.924103,8.12274602 68.4690924,8.42795291 67.964,8.428 C67.2832112,8.42752466 66.7288347,7.88071795 66.719,7.2 L66.719,7.2 Z" id="Path_18"></path>
                    <path d="M74.049,4.539 C74.049,1.418 76.149,0.226 78.049,0.226 C78.9429116,0.235681302 79.8190578,0.476854064 80.592,0.926 L79.908,2.259 C79.3378332,1.94340861 78.7004074,1.76887944 78.049,1.75 C76.822,1.75 76.015,2.697 76.015,4.52 C76.015,6.379 76.927,6.905 78.032,6.905 C78.7531887,6.87661227 79.4518266,6.64581226 80.048,6.239 L80.748,7.519 C79.8820691,8.12069726 78.8563402,8.45042071 77.802,8.46600081 C75.8,8.467 74.049,7.537 74.049,4.539 Z" id="Path_19"></path>
                    <path d="M85.536,4.328 C85.536,1.295 87.465,0.228 89.656,0.228 C92.286,0.228 93.514,2.016 93.514,4.348 C93.514,7.329 91.62,8.469 89.376,8.469 C86.763,8.467 85.536,6.59 85.536,4.328 Z M91.536,4.328 C91.536,2.728 90.936,1.699 89.573,1.699 C88.029,1.699 87.504,2.733 87.504,4.328 C87.504,5.889 88.104,6.994 89.52,6.994 C91.059,6.994 91.532,5.854 91.532,4.328 L91.536,4.328 Z" id="Path_20"></path>
                    <path d="M110.681,2.61 L110.681,8.239 L108.787,8.239 L108.787,3.259 C108.787,2.119 108.487,1.751 107.718,1.751 C107.065329,1.77605426 106.42804,1.95637396 105.859,2.277 C105.873968,2.3873332 105.879987,2.49869625 105.877,2.61 L105.877,8.239 L103.983,8.239 L103.983,3.259 C103.983,2.119 103.683,1.751 102.914,1.751 C102.272448,1.77648865 101.646612,1.95696565 101.09,2.277 L101.09,8.239 L99.2,8.239 L99.2,0.489 L101.094,0.296 L101.094,0.979 C101.867608,0.510275653 102.749811,0.250783933 103.654,0.226 C104.386927,0.156254685 105.099463,0.492197153 105.512,1.102 C106.401288,0.559173406 107.416599,0.257268276 108.458,0.226 C109.787,0.226 110.681,0.927 110.681,2.61 Z" id="Path_21"></path>
                </g>
                <g id="Group_9" transform="translate(18.774000, 7.500000)" fill="#F1B210">
                    <g id="Group_7">
                        <circle id="Ellipse_3" cx="5.538" cy="5.545" r="5.261"></circle>
                    </g>
                    <g id="Group_8" transform="translate(16.000000, 0.000000)">
                        <circle id="Ellipse_4" cx="5.392" cy="5.545" r="5.261"></circle>
                    </g>
                </g>
                <path d="M45.526,30.484 C41.5262798,24.798855 34.3511921,22.2905977 27.6806262,24.2456389 C21.0100602,26.20068 16.3240858,32.1852336 16.026,39.13 C15.8094115,45.3659471 19.738076,50.9952669 25.666,52.943 L34.321,55.787 C31.1946792,60.7040937 24.920892,62.5623298 19.621,60.141 L19.15,59.921 C14.411,57.7276478 11.0395851,53.3608202 10.117,48.221 L10.117,48.221 L0.001,51.254 C1.81320654,59.2824919 7.25475687,66.0122762 14.726,69.465 L15.21,69.694 C21.453586,72.566657 28.6764094,72.3812328 34.7643747,69.1920003 C40.8523399,66.0027678 45.1169617,60.170396 46.31,53.402 L47.226,48.221 L47.226,48.221 L48.216,42.608 C48.9757636,38.3695698 48.0070208,34.0033845 45.526,30.484 L45.526,30.484 Z M28.956,42.946 C27.4882917,42.4831733 26.5044174,41.1044438 26.544,39.566 C26.6509211,36.5027643 29.1709188,34.0779527 32.236,34.0889624 C32.5680404,34.08803 32.8994566,34.1178239 33.226,34.178 C36.3260974,34.7230694 38.3975507,37.6778114 37.853,40.778 L37.003,45.589 L28.956,42.946 Z" id="Path_22" fill="#43766D"></path>
            </g>
        </g>
    </g>
</svg>