<svg version="1.2" xmlns="http://www.w3.org/2000/svg" viewBox="0 0 34 27" width="34" height="27"><defs><clipPath clipPathUnits="userSpaceOnUse" id="cp1"><path d="m-474-375h1920v1076h-1920z"/></clipPath></defs><style>.a{fill:#59cbbc}</style><g clip-path="url(#cp1)"><path class="a" d="m19.7 26.9c-0.6 0-1.2-0.5-1.2-1.2 0-0.6 0.6-1.1 1.2-1.1 2.1 0 3.9-1.1 6.2-2.8 1.6-1.2 3-2.8 3.8-4.4 1-1.9 1.3-4.3 0.7-5.9q-0.5-1.3-1.5-1.8c-1.2 1.3-2.6 1.9-4.2 1.9-2.2 0-3.5-0.9-4.3-1.7-1-1.1-1.6-2.5-1.5-4 0-2.4 1.6-4.3 4.1-5.1 0.8-0.3 1.8-0.5 2.7-0.5 1.2 0 2.3 0.3 3.3 0.8 4.3 2.2 6.1 7.8 4.4 13.7-0.9 3.2-2.5 5.6-5 7.9-3 2.8-6.9 4.2-8.7 4.2zm-18.5 0c-0.7 0-1.2-0.5-1.2-1.2 0-0.6 0.5-1.1 1.2-1.1 2 0 3.9-1.1 6.2-2.8 1.6-1.2 2.9-2.8 3.8-4.4 0.9-1.9 1.2-4.3 0.6-5.9q-0.4-1.3-1.5-1.8c-1.1 1.3-2.6 1.9-4.2 1.9-2.1 0-3.5-0.9-4.2-1.7-1.1-1.1-1.6-2.5-1.6-4 0.1-2.4 1.6-4.3 4.1-5.1q1.3-0.5 2.7-0.5c1.2 0 2.4 0.3 3.3 0.8 4.3 2.2 6.1 7.8 4.4 13.7-0.9 3.2-2.4 5.6-5 7.9-2.9 2.8-6.9 4.2-8.6 4.2z"/></g></svg>