<svg version="1.2" xmlns="http://www.w3.org/2000/svg" viewBox="0 0 27 29" width="27" height="29"><defs><clipPath clipPathUnits="userSpaceOnUse" id="cp1"><path d="m-1054-1222h1920v5159h-1920z"/></clipPath></defs><style>.a{fill:#59cbbc}</style><g clip-path="url(#cp1)"><path class="a" d="m26.5 28.3l-2.3-0.7 2.3-1.6zm-2.9-1.1l-1.5-0.5 4.3-3.1 0.1 1.6zm-2.2-0.8l-1.6-0.5 6.5-4.7 0.1 1.6zm-2.3-0.8l-1.5-0.5 8.7-6.3v1.6zm-2.2-0.8l-1.5-0.5 10.8-7.8v1.6zm-2.2-0.8l-1.5-0.5 12.9-9.4 0.1 1.6zm-2.2-0.8l-1.5-0.5 15.1-11v1.6zm-2.2-0.8l-1.5-0.5 17.3-12.5v1.6zm-2.2-0.8l-1.5-0.5 19.4-14.1v1.6zm-2.2-0.8l-1.5-0.5 21.6-15.7v1.6zm-2.2-0.8l-1.5-0.5 23.7-17.2 0.1 1.6zm-2.2-0.8l-1.5-0.5 25.9-18.8v1.6z"/></g></svg>