<svg version="1.2" xmlns="http://www.w3.org/2000/svg" viewBox="0 0 31 31" width="31" height="31"><defs><clipPath clipPathUnits="userSpaceOnUse" id="cp1"><path d="m-415-4947h1920v5159h-1920z"/></clipPath></defs><style>.a{fill:#777}</style><g clip-path="url(#cp1)"><path fill-rule="evenodd" class="a" d="m0.8 15.2c0-8.3 6.7-15.1 15-15.1 8.3 0 15.1 6.8 15.1 15.1 0 8.2-6.8 15-15.1 15-8.3 0-15-6.8-15-15zm1.6 0c0 7.4 6 13.4 13.4 13.4 7.4 0 13.4-6 13.4-13.4 0-7.4-6-13.5-13.4-13.5-7.4 0-13.4 6.1-13.4 13.5zm7.3 6.8q-1-0.3-2-0.8-0.3-0.2-0.6-0.4c-0.1-0.1-0.1-0.1-0.1-0.1 0.1 0 0.1 0 0.3 0 1 0.1 2-0.1 3-0.4 0.5-0.2 1.6-0.5 1.9-1q0-0.1 0-0.1-0.2 0-0.4 0c-0.9-0.3-2.2-0.8-2.8-2.4q-0.1-0.2 0.1-0.1c0.8 0 1.1 0 1.3-0.1q-0.2 0-0.4-0.1c-1.2-0.5-2.1-1.7-2.3-3q0-0.2 0-0.4 0-0.1 0.1-0.1c0.6 0.4 1.3 0.4 1.4 0.4q-0.2-0.2-0.4-0.4c-1.1-1-1.5-3-0.7-4.3 0.1-0.1 0.2-0.1 0.2 0 2 2.2 4.4 3.2 7.3 3.7 0 0 0 0 0-0.1 0-0.5-0.1-1 0.1-1.5q0.2-0.8 0.7-1.5 0.5-0.6 1.2-0.9 0.7-0.4 1.5-0.4 0.8-0.1 1.5 0.2 0.6 0.2 1 0.6 0.1 0.1 0.2 0.2 0.1 0.1 0.2 0.1 1.1-0.3 2.1-0.8 0-0.1 0.1-0.1 0 0.1 0 0.1-0.2 0.6-0.6 1.1c-0.2 0.2-0.6 0.7-0.9 0.8 0.6-0.1 1.2-0.3 1.8-0.5 0-0.1 0-0.1 0 0q0 0 0 0c0 0 0 0.1-0.1 0.3-0.4 0.5-0.8 1-1.3 1.4-0.1 0.1-0.3 0.1-0.3 0.3 0 2.9-0.7 5.7-2.8 7.8-1.9 2-4.6 2.9-7.2 2.9q-1.6 0-3.1-0.4z"/></g></svg>