<svg version="1.2" xmlns="http://www.w3.org/2000/svg" viewBox="0 0 11 15" width="11" height="15"><defs><clipPath clipPathUnits="userSpaceOnUse" id="cp1"><path d="m-1575-236h1920v1076h-1920z"/></clipPath></defs><style>.a{fill:#727272}</style><g clip-path="url(#cp1)"><path fill-rule="evenodd" class="a" d="m10.5 14.1c-0.3 0-0.5-0.2-0.5-0.5q0-2.4-1.2-3.6-1.1-1.1-3.3-1.1-2.2 0-3.3 1.1-1.2 1.2-1.2 3.6c0 0.3-0.2 0.5-0.5 0.5-0.3 0-0.5-0.2-0.5-0.5q0-2.8 1.5-4.3 1.1-1.1 3-1.3c-1.5-0.5-2.6-1.9-2.6-3.5 0-2 1.6-3.6 3.6-3.6 2 0 3.6 1.6 3.6 3.6 0 1.6-1.1 3-2.6 3.5q1.9 0.2 3 1.3 1.5 1.5 1.5 4.3c0 0.3-0.2 0.5-0.5 0.5zm-5-12.3c-1.5 0-2.7 1.2-2.7 2.7 0 1.5 1.2 2.7 2.7 2.7 1.5 0 2.7-1.2 2.7-2.7 0-1.5-1.2-2.7-2.7-2.7z"/></g></svg>