<svg version="1.2" xmlns="http://www.w3.org/2000/svg" viewBox="0 0 31 31" width="31" height="31"><defs><clipPath clipPathUnits="userSpaceOnUse" id="cp1"><path d="m-455-4947h1920v5159h-1920z"/></clipPath></defs><style>.a{fill:#777}</style><g clip-path="url(#cp1)"><path fill-rule="evenodd" class="a" d="m0.5 15.2c0-8.3 6.7-15.1 15-15.1 8.3 0 15 6.8 15 15.1 0 8.2-6.7 15-15 15-8.3 0-15-6.8-15-15zm1.6 0c0 7.4 6 13.4 13.4 13.4 7.4 0 13.4-6 13.4-13.4 0-7.4-6-13.5-13.4-13.5-7.4 0-13.4 6.1-13.4 13.5zm8.5 6.2c-2.1 0-3.8-1.7-3.8-3.8v-4.7c0-2.2 1.7-3.9 3.8-3.9h10c2.2 0 3.9 1.7 3.9 3.9v4.7c0 2.1-1.7 3.8-3.9 3.8zm3.3-8.5v4.5c0 0.2 0.1 0.3 0.3 0.3l4-2.2c0.2-0.1 0.2-0.4 0-0.5l-4-2.3q-0.1 0-0.1 0c-0.1 0-0.2 0.1-0.2 0.2z"/></g></svg>